<?xml version="1.0" encoding="UTF-8"?>
<!DOCTYPE svg PUBLIC "-//W3C//DTD SVG 1.1//EN" "http://www.w3.org/Graphics/SVG/1.1/DTD/svg11.dtd">
<svg xmlns="http://www.w3.org/2000/svg" version="1.1" width="512px" height="512px" style="shape-rendering:geometricPrecision; text-rendering:geometricPrecision; image-rendering:optimizeQuality; fill-rule:evenodd; clip-rule:evenodd" xmlns:xlink="http://www.w3.org/1999/xlink">
<g><path style="opacity:0.995" fill="#fe7e3f" d="M 192.5,-0.5 C 213.5,-0.5 234.5,-0.5 255.5,-0.5C 255.5,58.1667 255.5,116.833 255.5,175.5C 240.262,213.87 225.596,252.536 211.5,291.5C 226.167,291.5 240.833,291.5 255.5,291.5C 255.5,328.5 255.5,365.5 255.5,402.5C 227.498,402.333 199.498,402.5 171.5,403C 158.411,439.013 145.744,475.18 133.5,511.5C 88.8333,511.5 44.1667,511.5 -0.5,511.5C -0.5,510.5 -0.5,509.5 -0.5,508.5C 64.0094,338.982 128.343,169.315 192.5,-0.5 Z"/></g>
<g><path style="opacity:1" fill="#f25a3c" d="M 255.5,-0.5 C 274.833,-0.5 294.167,-0.5 313.5,-0.5C 379.129,169.4 445.129,339.066 511.5,508.5C 511.5,509.5 511.5,510.5 511.5,511.5C 465.833,511.5 420.167,511.5 374.5,511.5C 361.736,475.303 348.403,439.303 334.5,403.5C 308.175,402.5 281.842,402.167 255.5,402.5C 255.5,365.5 255.5,328.5 255.5,291.5C 268.171,291.667 280.838,291.5 293.5,291C 280.534,252.603 267.868,214.103 255.5,175.5C 255.5,116.833 255.5,58.1667 255.5,-0.5 Z"/></g>
</svg>
