<?xml version="1.0" encoding="UTF-8"?>
<!DOCTYPE svg PUBLIC "-//W3C//DTD SVG 1.1//EN" "http://www.w3.org/Graphics/SVG/1.1/DTD/svg11.dtd">
<svg xmlns="http://www.w3.org/2000/svg" version="1.1" width="797px" height="313px" style="shape-rendering:geometricPrecision; text-rendering:geometricPrecision; image-rendering:optimizeQuality; fill-rule:evenodd; clip-rule:evenodd" xmlns:xlink="http://www.w3.org/1999/xlink">
<g><path style="opacity:0.356" fill="#a3cbe6" d="M 213.5,40.5 C 212.711,40.2172 212.044,39.7172 211.5,39C 165.167,38.3333 118.833,38.3333 72.5,39C 70.26,39.977 67.9267,40.477 65.5,40.5C 67.2774,39.3995 69.2774,38.5662 71.5,38C 118.5,37.3333 165.5,37.3333 212.5,38C 213.252,38.6708 213.586,39.5041 213.5,40.5 Z"/></g>
<g><path style="opacity:1" fill="#1179c1" d="M 213.5,40.5 C 214.338,40.8417 214.672,41.5084 214.5,42.5C 214.427,44.0269 215.094,45.0269 216.5,45.5C 217.338,45.8417 217.672,46.5084 217.5,47.5C 217.427,49.0269 218.094,50.0269 219.5,50.5C 221.547,52.5496 223.214,54.883 224.5,57.5C 224.427,59.0269 225.094,60.0269 226.5,60.5C 226.833,61.1667 227.167,61.8333 227.5,62.5C 227.427,64.0269 228.094,65.0269 229.5,65.5C 231.664,67.822 233.331,70.4887 234.5,73.5C 234.427,75.0269 235.094,76.0269 236.5,76.5C 237.338,76.8417 237.672,77.5084 237.5,78.5C 238.08,80.7488 239.413,82.4154 241.5,83.5C 244.159,87.8283 246.826,92.1617 249.5,96.5C 200.173,98.1643 150.507,99.1643 100.5,99.5C 100.624,100.107 100.957,100.44 101.5,100.5C 102.536,102.391 102.536,104.224 101.5,106C 103.39,107.891 104.89,110.058 106,112.5C 106.333,112.167 106.667,111.833 107,111.5C 108.38,114.598 110.547,116.931 113.5,118.5C 114.338,118.842 114.672,119.508 114.5,120.5C 114.427,122.027 115.094,123.027 116.5,123.5C 116.427,125.027 117.094,126.027 118.5,126.5C 121.326,129.484 123.659,132.817 125.5,136.5C 125.427,138.027 126.094,139.027 127.5,139.5C 129.604,142.267 131.271,145.267 132.5,148.5C 132.427,150.027 133.094,151.027 134.5,151.5C 135.5,151.833 136.167,152.5 136.5,153.5C 136.427,155.027 137.094,156.027 138.5,156.5C 140.89,159.566 142.89,162.9 144.5,166.5C 144.738,168.404 145.738,169.738 147.5,170.5C 148.674,171.514 149.34,172.847 149.5,174.5C 170.994,175.497 192.66,175.831 214.5,175.5C 214.5,213.5 214.5,251.5 214.5,289.5C 189.167,289.5 163.833,289.5 138.5,289.5C 138.5,264.167 138.5,238.833 138.5,213.5C 110.5,213.5 82.5,213.5 54.5,213.5C 54.5,183.5 54.5,153.5 54.5,123.5C 54.2057,99.1408 54.539,74.8074 55.5,50.5C 57.8333,46.1667 61.1667,42.8333 65.5,40.5C 67.9267,40.477 70.26,39.977 72.5,39C 118.833,38.3333 165.167,38.3333 211.5,39C 212.044,39.7172 212.711,40.2172 213.5,40.5 Z"/></g>
<g><path style="opacity:0.455" fill="#a4cae7" d="M 214.5,42.5 C 215.906,42.9731 216.573,43.9731 216.5,45.5C 215.094,45.0269 214.427,44.0269 214.5,42.5 Z"/></g>
<g><path style="opacity:0.396" fill="#adcfe9" d="M 217.5,47.5 C 218.906,47.9731 219.573,48.9731 219.5,50.5C 218.094,50.0269 217.427,49.0269 217.5,47.5 Z"/></g>
<g><path style="opacity:0.161" fill="#c6dcef" d="M 224.5,57.5 C 225.906,57.9731 226.573,58.9731 226.5,60.5C 225.094,60.0269 224.427,59.0269 224.5,57.5 Z"/></g>
<g><path style="opacity:0.553" fill="#abcde8" d="M 227.5,62.5 C 228.906,62.9731 229.573,63.9731 229.5,65.5C 228.094,65.0269 227.427,64.0269 227.5,62.5 Z"/></g>
<g><path style="opacity:0.341" fill="#aed0e9" d="M 234.5,73.5 C 235.906,73.9731 236.573,74.9731 236.5,76.5C 235.094,76.0269 234.427,75.0269 234.5,73.5 Z"/></g>
<g><path style="opacity:0.278" fill="#b9d8ec" d="M 55.5,50.5 C 54.539,74.8074 54.2057,99.1408 54.5,123.5C 54.1667,123.5 53.8333,123.5 53.5,123.5C 53.3334,100.164 53.5,76.831 54,53.5C 54.2321,52.2625 54.7321,51.2625 55.5,50.5 Z"/></g>
<g><path style="opacity:0.843" fill="#90bce1" d="M 237.5,78.5 C 239.587,79.5846 240.92,81.2512 241.5,83.5C 239.413,82.4154 238.08,80.7488 237.5,78.5 Z"/></g>
<g><path style="opacity:0.672" fill="#68aad9" d="M 249.5,96.5 C 250.478,96.811 251.145,97.4777 251.5,98.5C 201.335,99.1667 151.335,99.8333 101.5,100.5C 100.957,100.44 100.624,100.107 100.5,99.5C 150.507,99.1643 200.173,98.1643 249.5,96.5 Z"/></g>
<g><path style="opacity:1" fill="#f9641c" d="M 43.5,223.5 C 43.631,224.239 43.4643,224.906 43,225.5C 41.6924,223.359 40.1924,221.359 38.5,219.5C 37.376,220.914 36.376,222.414 35.5,224C 35.6158,225.268 35.9491,226.602 36.5,228C 35.6433,228.689 34.9767,229.522 34.5,230.5C 35.0525,232.727 35.0525,235.061 34.5,237.5C 33.8333,237.5 33.1667,237.5 32.5,237.5C 32.5,184.167 32.5,130.833 32.5,77.5C 36.1667,77.5 39.8333,77.5 43.5,77.5C 43.5,126.167 43.5,174.833 43.5,223.5 Z"/></g>
<g><path style="opacity:0.786" fill="#ffb997" d="M 45.5,223.5 C 44.8333,223.5 44.1667,223.5 43.5,223.5C 43.5,174.833 43.5,126.167 43.5,77.5C 39.8333,77.5 36.1667,77.5 32.5,77.5C 32.5,130.833 32.5,184.167 32.5,237.5C 31.3349,184.002 31.1682,130.335 32,76.5C 36.4106,75.4043 40.5773,75.4043 44.5,76.5C 45.4999,125.495 45.8333,174.495 45.5,223.5 Z"/></g>
<g><path style="opacity:0.155" fill="#fdeccf" d="M 288.5,109.5 C 232.331,109.168 176.331,109.501 120.5,110.5C 119.957,110.44 119.624,110.107 119.5,109.5C 175.999,108.169 232.332,108.169 288.5,109.5 Z"/></g>
<g><path style="opacity:1" fill="#f9a614" d="M 288.5,109.5 C 289.665,154.331 289.831,199.331 289,244.5C 286.913,247.07 285.08,249.737 283.5,252.5C 282.094,252.973 281.427,253.973 281.5,255.5C 276.5,262.833 271.5,270.167 266.5,277.5C 265.425,276.438 264.425,276.438 263.5,277.5C 261.942,279.991 260.942,282.657 260.5,285.5C 260.34,287.153 259.674,288.486 258.5,289.5C 247.5,289.5 236.5,289.5 225.5,289.5C 225.5,247.833 225.5,206.167 225.5,164.5C 201.788,164.813 178.122,164.48 154.5,163.5C 151.759,161.025 149.759,158.025 148.5,154.5C 148.446,152.368 147.446,151.035 145.5,150.5C 144.512,149.205 143.512,147.872 142.5,146.5C 142.715,144.821 142.048,143.821 140.5,143.5C 139.172,141.207 137.839,138.873 136.5,136.5C 136.446,134.368 135.446,133.035 133.5,132.5C 131.44,129.76 129.774,126.76 128.5,123.5C 128.446,121.368 127.446,120.035 125.5,119.5C 122.556,117.284 120.889,114.284 120.5,110.5C 176.331,109.501 232.331,109.168 288.5,109.5 Z"/></g>
<g><path style="opacity:1" fill="#5c97d0" d="M 101.5,100.5 C 105.885,106.223 109.885,112.223 113.5,118.5C 110.547,116.931 108.38,114.598 107,111.5C 106.667,111.833 106.333,112.167 106,112.5C 104.89,110.058 103.39,107.891 101.5,106C 102.536,104.224 102.536,102.391 101.5,100.5 Z"/></g>
<g><path style="opacity:0.573" fill="#ffd89b" d="M 125.5,119.5 C 127.446,120.035 128.446,121.368 128.5,123.5C 127.026,122.564 126.026,121.23 125.5,119.5 Z"/></g>
<g><path style="opacity:0.447" fill="#a3c9e7" d="M 114.5,120.5 C 115.906,120.973 116.573,121.973 116.5,123.5C 115.094,123.027 114.427,122.027 114.5,120.5 Z"/></g>
<g><path style="opacity:0.314" fill="#b8d6ec" d="M 116.5,123.5 C 117.906,123.973 118.573,124.973 118.5,126.5C 117.094,126.027 116.427,125.027 116.5,123.5 Z"/></g>
<g><path style="opacity:0.933" fill="#ffd38f" d="M 133.5,132.5 C 135.446,133.035 136.446,134.368 136.5,136.5C 135.026,135.564 134.026,134.23 133.5,132.5 Z"/></g>
<g><path style="opacity:0.235" fill="#c3dbef" d="M 125.5,136.5 C 126.906,136.973 127.573,137.973 127.5,139.5C 126.094,139.027 125.427,138.027 125.5,136.5 Z"/></g>
<g><path style="opacity:0.004" fill="#ffedd0" d="M 140.5,143.5 C 142.048,143.821 142.715,144.821 142.5,146.5C 141.599,145.71 140.932,144.71 140.5,143.5 Z"/></g>
<g><path style="opacity:0.416" fill="#abcee9" d="M 132.5,148.5 C 133.906,148.973 134.573,149.973 134.5,151.5C 133.094,151.027 132.427,150.027 132.5,148.5 Z"/></g>
<g><path style="opacity:0.875" fill="#ffd797" d="M 145.5,150.5 C 147.446,151.035 148.446,152.368 148.5,154.5C 147.026,153.564 146.026,152.23 145.5,150.5 Z"/></g>
<g><path style="opacity:0.369" fill="#b1d2e9" d="M 136.5,153.5 C 137.906,153.973 138.573,154.973 138.5,156.5C 137.094,156.027 136.427,155.027 136.5,153.5 Z"/></g>
<g><path style="opacity:0.487" fill="#fdd99b" d="M 154.5,163.5 C 178.122,164.48 201.788,164.813 225.5,164.5C 225.5,206.167 225.5,247.833 225.5,289.5C 236.5,289.5 247.5,289.5 258.5,289.5C 257.508,291.026 256.008,291.693 254,291.5C 244.192,291.728 234.359,291.395 224.5,290.5C 224.5,248.833 224.5,207.167 224.5,165.5C 201.498,165.667 178.498,165.5 155.5,165C 154.944,164.617 154.611,164.117 154.5,163.5 Z"/></g>
<g><path style="opacity:0.682" fill="#94c0e2" d="M 53.5,123.5 C 53.8333,123.5 54.1667,123.5 54.5,123.5C 54.5,153.5 54.5,183.5 54.5,213.5C 54.1667,213.5 53.8333,213.5 53.5,213.5C 52.8377,184.065 52.8377,154.065 53.5,123.5 Z"/></g>
<g><path style="opacity:0.6" fill="#afd0e9" d="M 144.5,166.5 C 146.262,167.262 147.262,168.596 147.5,170.5C 145.738,169.738 144.738,168.404 144.5,166.5 Z"/></g>
<g><path style="opacity:0.882" fill="#daf18a" d="M 369.5,220.5 C 368.053,219.378 367.053,217.878 366.5,216C 356.756,215.194 347.089,215.361 337.5,216.5C 337.414,215.504 337.748,214.671 338.5,214C 348.184,213.168 357.851,213.335 367.5,214.5C 368.372,216.45 369.039,218.45 369.5,220.5 Z"/></g>
<g><path style="opacity:0.175" fill="#f4fbdd" d="M 525.5,261.5 C 525.5,245.833 525.5,230.167 525.5,214.5C 517.833,214.5 510.167,214.5 502.5,214.5C 502.83,230.675 502.496,246.675 501.5,262.5C 501.5,246.167 501.5,229.833 501.5,213.5C 509.833,213.5 518.167,213.5 526.5,213.5C 526.83,229.675 526.496,245.675 525.5,261.5 Z"/></g>
<g><path style="opacity:0.381" fill="#e9f7bc" d="M 597.5,214.5 C 608.988,213.505 620.655,213.172 632.5,213.5C 632.5,239.167 632.5,264.833 632.5,290.5C 632.167,290.5 631.833,290.5 631.5,290.5C 631.5,265.167 631.5,239.833 631.5,214.5C 620.167,214.5 608.833,214.5 597.5,214.5 Z"/></g>
<g><path style="opacity:0.433" fill="#e3f5aa" d="M 734.5,213.5 C 742.5,213.5 750.5,213.5 758.5,213.5C 758.5,239.5 758.5,265.5 758.5,291.5C 750.5,291.5 742.5,291.5 734.5,291.5C 734.5,265.5 734.5,239.5 734.5,213.5 Z"/></g>
<g><path style="opacity:1" fill="#b7e628" d="M 369.5,220.5 C 369.5,220.833 369.5,221.167 369.5,221.5C 369.12,223.698 369.787,225.365 371.5,226.5C 372.319,228.772 372.985,231.106 373.5,233.5C 373.259,235.898 373.926,237.898 375.5,239.5C 375.5,239.833 375.5,240.167 375.5,240.5C 375.12,242.698 375.787,244.365 377.5,245.5C 378.566,247.701 379.233,250.035 379.5,252.5C 379.12,254.698 379.787,256.365 381.5,257.5C 381.5,257.833 381.5,258.167 381.5,258.5C 381.12,260.698 381.787,262.365 383.5,263.5C 383.5,263.833 383.5,264.167 383.5,264.5C 383.259,266.898 383.926,268.898 385.5,270.5C 385.259,272.898 385.926,274.898 387.5,276.5C 388.939,278.588 389.606,280.921 389.5,283.5C 389.259,285.898 389.926,287.898 391.5,289.5C 383.35,290.493 375.017,290.826 366.5,290.5C 366.741,288.102 366.074,286.102 364.5,284.5C 363.781,282.236 363.448,279.903 363.5,277.5C 355.833,277.5 348.167,277.5 340.5,277.5C 340.282,282.038 339.282,286.371 337.5,290.5C 328.983,290.826 320.65,290.493 312.5,289.5C 314.074,287.898 314.741,285.898 314.5,283.5C 314.767,281.035 315.434,278.701 316.5,276.5C 318.213,275.365 318.88,273.698 318.5,271.5C 318.5,271.167 318.5,270.833 318.5,270.5C 320.213,269.365 320.88,267.698 320.5,265.5C 320.557,264.391 320.89,263.391 321.5,262.5C 323.074,260.898 323.741,258.898 323.5,256.5C 323.557,255.391 323.89,254.391 324.5,253.5C 326.213,252.365 326.88,250.698 326.5,248.5C 326.5,248.167 326.5,247.833 326.5,247.5C 328.213,246.365 328.88,244.698 328.5,242.5C 328.5,242.167 328.5,241.833 328.5,241.5C 330.213,240.365 330.88,238.698 330.5,236.5C 330.557,235.391 330.89,234.391 331.5,233.5C 333.074,231.898 333.741,229.898 333.5,227.5C 333.971,225.421 334.637,223.421 335.5,221.5C 337.213,220.365 337.88,218.698 337.5,216.5C 347.089,215.361 356.756,215.194 366.5,216C 367.053,217.878 368.053,219.378 369.5,220.5 Z M 353.5,239.5 C 354.765,246.29 356.432,252.957 358.5,259.5C 353.968,259.818 349.634,259.485 345.5,258.5C 347.789,252.011 349.455,245.345 350.5,238.5C 351.29,237.391 351.79,236.058 352,234.5C 352.198,236.382 352.698,238.048 353.5,239.5 Z"/></g>
<g><path style="opacity:1" fill="#b8e72c" d="M 481.5,214.5 C 482.331,230.662 482.831,246.995 483,263.5C 483.625,267.109 485.458,269.776 488.5,271.5C 490.966,272.634 493.633,272.801 496.5,272C 497.056,271.617 497.389,271.117 497.5,270.5C 499.361,268.112 500.694,265.446 501.5,262.5C 502.496,246.675 502.83,230.675 502.5,214.5C 510.167,214.5 517.833,214.5 525.5,214.5C 525.5,230.167 525.5,245.833 525.5,261.5C 524.428,282.9 513.095,293.233 491.5,292.5C 483.631,293.005 476.631,291.005 470.5,286.5C 469.738,284.738 468.404,283.738 466.5,283.5C 466.5,282.167 465.833,281.5 464.5,281.5C 460.502,275.836 458.502,269.503 458.5,262.5C 458.5,246.5 458.5,230.5 458.5,214.5C 466.167,214.5 473.833,214.5 481.5,214.5 Z"/></g>
<g><path style="opacity:1" fill="#b7e629" d="M 575.5,220.5 C 575.259,222.898 575.926,224.898 577.5,226.5C 577.5,226.833 577.5,227.167 577.5,227.5C 577.294,230.495 577.96,233.162 579.5,235.5C 579.719,239.8 580.719,243.8 582.5,247.5C 584.419,251.857 585.419,256.523 585.5,261.5C 585.34,263.199 585.506,264.866 586,266.5C 587.252,263.986 587.752,261.32 587.5,258.5C 587.42,255.219 588.087,252.219 589.5,249.5C 590.768,247.095 591.435,244.428 591.5,241.5C 591.74,236.88 592.74,232.547 594.5,228.5C 595.768,226.095 596.435,223.428 596.5,220.5C 596.325,218.379 596.659,216.379 597.5,214.5C 608.833,214.5 620.167,214.5 631.5,214.5C 631.5,239.833 631.5,265.167 631.5,290.5C 624.167,290.5 616.833,290.5 609.5,290.5C 609.667,271.497 609.5,252.497 609,233.5C 608.433,236.168 607.933,238.834 607.5,241.5C 607.075,246.077 606.075,250.41 604.5,254.5C 603.232,256.905 602.565,259.572 602.5,262.5C 602.5,263.167 602.5,263.833 602.5,264.5C 600.926,266.102 600.259,268.102 600.5,270.5C 599.547,277.523 597.88,284.356 595.5,291C 588.167,291.667 580.833,291.667 573.5,291C 568.797,275.356 564.797,259.523 561.5,243.5C 561.737,242.209 561.404,241.209 560.5,240.5C 559.794,239.443 559.461,239.776 559.5,241.5C 559.5,257.833 559.5,274.167 559.5,290.5C 552.833,290.5 546.167,290.5 539.5,290.5C 539.5,264.833 539.5,239.167 539.5,213.5C 551.186,213.168 562.852,213.501 574.5,214.5C 575.348,216.409 575.682,218.409 575.5,220.5 Z"/></g>
<g><path style="opacity:0.797" fill="#d0ee6e" d="M 669.5,215.5 C 669.5,215.833 669.5,216.167 669.5,216.5C 662.254,215.536 654.92,215.203 647.5,215.5C 647.5,240.5 647.5,265.5 647.5,290.5C 647.167,290.5 646.833,290.5 646.5,290.5C 646.5,264.833 646.5,239.167 646.5,213.5C 653.841,213.334 661.174,213.5 668.5,214C 669.056,214.383 669.389,214.883 669.5,215.5 Z"/></g>
<g><path style="opacity:1" fill="#b5e61e" d="M 669.5,216.5 C 669.833,217.5 670.5,218.167 671.5,218.5C 671.738,220.404 672.738,221.738 674.5,222.5C 674.427,224.027 675.094,225.027 676.5,225.5C 677.5,225.833 678.167,226.5 678.5,227.5C 678.427,229.027 679.094,230.027 680.5,230.5C 680.427,232.027 681.094,233.027 682.5,233.5C 682.738,235.404 683.738,236.738 685.5,237.5C 685.738,239.404 686.738,240.738 688.5,241.5C 688.427,243.027 689.094,244.027 690.5,244.5C 691.5,244.833 692.167,245.5 692.5,246.5C 692.427,248.027 693.094,249.027 694.5,249.5C 694.427,251.027 695.094,252.027 696.5,252.5C 696.685,254.196 697.519,255.529 699,256.5C 699.5,242.837 699.667,229.171 699.5,215.5C 706.167,215.5 712.833,215.5 719.5,215.5C 719.5,240.5 719.5,265.5 719.5,290.5C 712.833,290.5 706.167,290.5 699.5,290.5C 699.446,288.368 698.446,287.035 696.5,286.5C 696.446,284.368 695.446,283.035 693.5,282.5C 693.446,280.368 692.446,279.035 690.5,278.5C 689.599,277.71 688.932,276.71 688.5,275.5C 688.446,273.368 687.446,272.035 685.5,271.5C 685.446,269.368 684.446,268.035 682.5,267.5C 680.453,265.45 678.786,263.117 677.5,260.5C 677.446,258.368 676.446,257.035 674.5,256.5C 674.446,254.368 673.446,253.035 671.5,252.5C 670.599,251.71 669.932,250.71 669.5,249.5C 669.539,248.244 669.039,247.244 668,246.5C 667.5,261.163 667.333,275.83 667.5,290.5C 660.833,290.5 654.167,290.5 647.5,290.5C 647.5,265.5 647.5,240.5 647.5,215.5C 654.92,215.203 662.254,215.536 669.5,216.5 Z"/></g>
<g><path style="opacity:0.593" fill="#e0f4a0" d="M 698.5,214.5 C 705.648,213.508 712.981,213.175 720.5,213.5C 720.5,239.5 720.5,265.5 720.5,291.5C 713.313,291.825 706.313,291.491 699.5,290.5C 706.167,290.5 712.833,290.5 719.5,290.5C 719.5,265.5 719.5,240.5 719.5,215.5C 712.687,214.509 705.687,214.175 698.5,214.5 Z"/></g>
<g><path style="opacity:1" fill="#b4e51c" d="M 735.5,214.5 C 742.833,214.5 750.167,214.5 757.5,214.5C 757.5,239.833 757.5,265.167 757.5,290.5C 750.167,290.5 742.833,290.5 735.5,290.5C 735.5,265.167 735.5,239.833 735.5,214.5 Z"/></g>
<g><path style="opacity:0.463" fill="#e5f6ae" d="M 669.5,215.5 C 670.906,215.973 671.573,216.973 671.5,218.5C 670.5,218.167 669.833,217.5 669.5,216.5C 669.5,216.167 669.5,215.833 669.5,215.5 Z"/></g>
<g><path style="opacity:0.898" fill="#def397" d="M 337.5,216.5 C 337.88,218.698 337.213,220.365 335.5,221.5C 335.796,219.597 336.463,217.93 337.5,216.5 Z"/></g>
<g><path style="opacity:0.62" fill="#e0f49c" d="M 671.5,218.5 C 673.262,219.262 674.262,220.596 674.5,222.5C 672.738,221.738 671.738,220.404 671.5,218.5 Z"/></g>
<g><path style="opacity:0.8" fill="#e1f39f" d="M 575.5,220.5 C 576.738,222.214 577.405,224.214 577.5,226.5C 575.926,224.898 575.259,222.898 575.5,220.5 Z"/></g>
<g><path style="opacity:0.694" fill="#e2f4a3" d="M 596.5,220.5 C 596.435,223.428 595.768,226.095 594.5,228.5C 594.294,225.505 594.96,222.838 596.5,220.5 Z"/></g>
<g><path style="opacity:0.796" fill="#ddf395" d="M 674.5,222.5 C 675.906,222.973 676.573,223.973 676.5,225.5C 675.094,225.027 674.427,224.027 674.5,222.5 Z"/></g>
<g><path style="opacity:0.77" fill="#c9ec5c" d="M 698.5,214.5 C 705.687,214.175 712.687,214.509 719.5,215.5C 712.833,215.5 706.167,215.5 699.5,215.5C 699.667,229.171 699.5,242.837 699,256.5C 697.519,255.529 696.685,254.196 696.5,252.5C 697.117,252.611 697.617,252.944 698,253.5C 698.5,240.504 698.667,227.504 698.5,214.5 Z"/></g>
<g><path style="opacity:0.804" fill="#e3f4a4" d="M 369.5,221.5 C 370.537,222.93 371.204,224.597 371.5,226.5C 369.787,225.365 369.12,223.698 369.5,221.5 Z"/></g>
<g><path style="opacity:1" fill="#f36723" d="M 43.5,223.5 C 44.1667,223.5 44.8333,223.5 45.5,223.5C 51.951,222.328 58.6176,222.328 65.5,223.5C 85.9933,224.497 106.66,224.831 127.5,224.5C 127.5,246.167 127.5,267.833 127.5,289.5C 112.5,289.5 97.5,289.5 82.5,289.5C 79.0935,287.926 75.4268,286.926 71.5,286.5C 71.0269,285.094 70.0269,284.427 68.5,284.5C 66.847,284.34 65.5137,283.674 64.5,282.5C 64.0269,281.094 63.0269,280.427 61.5,280.5C 59.8333,279.5 58.5,278.167 57.5,276.5C 57.1667,275.5 56.5,274.833 55.5,274.5C 54.5,274.167 53.8333,273.5 53.5,272.5C 53.4456,270.368 52.4456,269.035 50.5,268.5C 49.6618,268.158 49.3284,267.492 49.5,266.5C 48.8645,264.205 47.5311,262.539 45.5,261.5C 44.8902,260.609 44.5569,259.609 44.5,258.5C 44.7409,255.966 43.7409,254.3 41.5,253.5C 40.6618,253.158 40.3284,252.492 40.5,251.5C 40.7409,248.966 39.7409,247.3 37.5,246.5C 36.0687,245.22 35.4021,243.553 35.5,241.5C 35.1667,240.167 34.8333,238.833 34.5,237.5C 35.0525,235.061 35.0525,232.727 34.5,230.5C 34.9767,229.522 35.6433,228.689 36.5,228C 35.9491,226.602 35.6158,225.268 35.5,224C 36.376,222.414 37.376,220.914 38.5,219.5C 40.1924,221.359 41.6924,223.359 43,225.5C 43.4643,224.906 43.631,224.239 43.5,223.5 Z"/></g>
<g><path style="opacity:0.257" fill="#f0fad2" d="M 481.5,214.5 C 473.833,214.5 466.167,214.5 458.5,214.5C 458.5,230.5 458.5,246.5 458.5,262.5C 457.504,246.342 457.17,230.009 457.5,213.5C 465.684,213.174 473.684,213.508 481.5,214.5 Z"/></g>
<g><path style="opacity:0.318" fill="#edf8c4" d="M 678.5,227.5 C 679.906,227.973 680.573,228.973 680.5,230.5C 679.094,230.027 678.427,229.027 678.5,227.5 Z"/></g>
<g><path style="opacity:0.737" fill="#e7f6b2" d="M 333.5,227.5 C 333.741,229.898 333.074,231.898 331.5,233.5C 331.595,231.214 332.262,229.214 333.5,227.5 Z"/></g>
<g><path style="opacity:0.835" fill="#e0f49e" d="M 577.5,227.5 C 578.768,229.905 579.435,232.572 579.5,235.5C 577.96,233.162 577.294,230.495 577.5,227.5 Z"/></g>
<g><path style="opacity:0.482" fill="#e4f5a8" d="M 680.5,230.5 C 681.906,230.973 682.573,231.973 682.5,233.5C 681.094,233.027 680.427,232.027 680.5,230.5 Z"/></g>
<g><path style="opacity:0.545" fill="#e4f5aa" d="M 353.5,239.5 C 352.698,238.048 352.198,236.382 352,234.5C 351.79,236.058 351.29,237.391 350.5,238.5C 350.298,236.011 350.798,233.677 352,231.5C 353.252,234.014 353.752,236.68 353.5,239.5 Z"/></g>
<g><path style="opacity:0.867" fill="#ddf294" d="M 682.5,233.5 C 684.262,234.262 685.262,235.596 685.5,237.5C 683.738,236.738 682.738,235.404 682.5,233.5 Z"/></g>
<g><path style="opacity:0.706" fill="#e7f6b2" d="M 373.5,233.5 C 374.738,235.214 375.405,237.214 375.5,239.5C 373.926,237.898 373.259,235.898 373.5,233.5 Z"/></g>
<g><path style="opacity:0.565" fill="#ffbd9f" d="M 32.5,237.5 C 33.1667,237.5 33.8333,237.5 34.5,237.5C 34.8333,238.833 35.1667,240.167 35.5,241.5C 34.0256,240.564 33.0256,239.23 32.5,237.5 Z"/></g>
<g><path style="opacity:0.808" fill="#e3f4a5" d="M 330.5,236.5 C 330.88,238.698 330.213,240.365 328.5,241.5C 328.796,239.597 329.463,237.93 330.5,236.5 Z"/></g>
<g><path style="opacity:0.847" fill="#e3f4a7" d="M 579.5,235.5 C 581.281,239.2 582.281,243.2 582.5,247.5C 580.719,243.8 579.719,239.8 579.5,235.5 Z"/></g>
<g><path style="opacity:0.604" fill="#e0f39d" d="M 685.5,237.5 C 687.262,238.262 688.262,239.596 688.5,241.5C 686.738,240.738 685.738,239.404 685.5,237.5 Z"/></g>
<g><path style="opacity:0.78" fill="#ddf395" d="M 688.5,241.5 C 689.906,241.973 690.573,242.973 690.5,244.5C 689.094,244.027 688.427,243.027 688.5,241.5 Z"/></g>
<g><path style="opacity:0.807" fill="#549fd3" d="M 149.5,174.5 C 171.673,174.169 193.673,174.503 215.5,175.5C 215.832,213.67 215.499,251.67 214.5,289.5C 214.5,251.5 214.5,213.5 214.5,175.5C 192.66,175.831 170.994,175.497 149.5,174.5 Z"/></g>
<g><path style="opacity:0.91" fill="#ddf296" d="M 375.5,240.5 C 376.931,241.78 377.598,243.447 377.5,245.5C 375.787,244.365 375.12,242.698 375.5,240.5 Z"/></g>
<g><path style="opacity:0.678" fill="#e4f5a9" d="M 591.5,241.5 C 591.435,244.428 590.768,247.095 589.5,249.5C 589.294,246.505 589.96,243.838 591.5,241.5 Z"/></g>
<g><path style="opacity:0.519" fill="#f9af8d" d="M 65.5,223.5 C 86.5,223.5 107.5,223.5 128.5,223.5C 128.5,245.833 128.5,268.167 128.5,290.5C 112.991,290.83 97.6576,290.496 82.5,289.5C 97.5,289.5 112.5,289.5 127.5,289.5C 127.5,267.833 127.5,246.167 127.5,224.5C 106.66,224.831 85.9933,224.497 65.5,223.5 Z"/></g>
<g><path style="opacity:0.851" fill="#dff39b" d="M 328.5,242.5 C 328.88,244.698 328.213,246.365 326.5,247.5C 326.796,245.597 327.463,243.93 328.5,242.5 Z"/></g>
<g><path style="opacity:0.304" fill="#edf9ca" d="M 631.5,290.5 C 631.833,290.5 632.167,290.5 632.5,290.5C 624.684,291.492 616.684,291.826 608.5,291.5C 608.83,274.658 608.497,257.992 607.5,241.5C 607.933,238.834 608.433,236.168 609,233.5C 609.5,252.497 609.667,271.497 609.5,290.5C 616.833,290.5 624.167,290.5 631.5,290.5 Z"/></g>
<g><path style="opacity:0.584" fill="#ffc1a5" d="M 37.5,246.5 C 39.7409,247.3 40.7409,248.966 40.5,251.5C 39.2632,250.035 38.2632,248.368 37.5,246.5 Z"/></g>
<g><path style="opacity:0.329" fill="#ecf8c2" d="M 692.5,246.5 C 693.906,246.973 694.573,247.973 694.5,249.5C 693.094,249.027 692.427,248.027 692.5,246.5 Z"/></g>
<g><path style="opacity:0.902" fill="#e0f39d" d="M 326.5,248.5 C 326.88,250.698 326.213,252.365 324.5,253.5C 324.402,251.447 325.069,249.78 326.5,248.5 Z"/></g>
<g><path style="opacity:0.443" fill="#e5f5ad" d="M 694.5,249.5 C 695.906,249.973 696.573,250.973 696.5,252.5C 695.094,252.027 694.427,251.027 694.5,249.5 Z"/></g>
<g><path style="opacity:0.933" fill="#e1f39e" d="M 671.5,252.5 C 673.446,253.035 674.446,254.368 674.5,256.5C 673.026,255.564 672.026,254.23 671.5,252.5 Z"/></g>
<g><path style="opacity:0.902" fill="#ffba9b" d="M 41.5,253.5 C 43.7409,254.3 44.7409,255.966 44.5,258.5C 43.2632,257.035 42.2632,255.368 41.5,253.5 Z"/></g>
<g><path style="opacity:0.008" fill="#fff1dc" d="M 283.5,252.5 C 283.573,254.027 282.906,255.027 281.5,255.5C 281.427,253.973 282.094,252.973 283.5,252.5 Z"/></g>
<g><path style="opacity:0.227" fill="#f1fad5" d="M 560.5,240.5 C 561.404,241.209 561.737,242.209 561.5,243.5C 560.504,259.325 560.17,275.325 560.5,291.5C 553.313,291.825 546.313,291.491 539.5,290.5C 546.167,290.5 552.833,290.5 559.5,290.5C 559.5,274.167 559.5,257.833 559.5,241.5C 560.167,241.5 560.5,241.167 560.5,240.5 Z"/></g>
<g><path style="opacity:0.863" fill="#def398" d="M 379.5,252.5 C 380.537,253.93 381.204,255.597 381.5,257.5C 379.787,256.365 379.12,254.698 379.5,252.5 Z"/></g>
<g><path style="opacity:0.957" fill="#ddf295" d="M 674.5,256.5 C 676.446,257.035 677.446,258.368 677.5,260.5C 676.026,259.564 675.026,258.23 674.5,256.5 Z"/></g>
<g><path style="opacity:0.031" fill="#f1f9d1" d="M 604.5,254.5 C 604.706,257.495 604.04,260.162 602.5,262.5C 602.565,259.572 603.232,256.905 604.5,254.5 Z"/></g>
<g><path style="opacity:0.757" fill="#e6f6b0" d="M 323.5,256.5 C 323.741,258.898 323.074,260.898 321.5,262.5C 321.595,260.214 322.262,258.214 323.5,256.5 Z"/></g>
<g><path style="opacity:0.284" fill="#e9f7bd" d="M 345.5,258.5 C 349.634,259.485 353.968,259.818 358.5,259.5C 353.985,260.812 349.318,260.812 344.5,259.5C 344.624,258.893 344.957,258.56 345.5,258.5 Z"/></g>
<g><path style="opacity:0.816" fill="#e1f3a0" d="M 381.5,258.5 C 382.537,259.93 383.204,261.597 383.5,263.5C 381.787,262.365 381.12,260.698 381.5,258.5 Z"/></g>
<g><path style="opacity:0.482" fill="#fec4a8" d="M 45.5,261.5 C 47.5311,262.539 48.8645,264.205 49.5,266.5C 47.457,265.421 46.1237,263.754 45.5,261.5 Z"/></g>
<g><path style="opacity:0.439" fill="#e4f5ab" d="M 587.5,258.5 C 587.752,261.32 587.252,263.986 586,266.5C 585.506,264.866 585.34,263.199 585.5,261.5C 586.167,260.5 586.833,259.5 587.5,258.5 Z"/></g>
<g><path style="opacity:0.788" fill="#e3f4a5" d="M 383.5,264.5 C 384.738,266.214 385.405,268.214 385.5,270.5C 383.926,268.898 383.259,266.898 383.5,264.5 Z"/></g>
<g><path style="opacity:0.459" fill="#eaf7bd" d="M 602.5,264.5 C 602.405,266.786 601.738,268.786 600.5,270.5C 600.259,268.102 600.926,266.102 602.5,264.5 Z"/></g>
<g><path style="opacity:0.573" fill="#e0f49e" d="M 669.5,249.5 C 668.504,263.323 668.171,277.323 668.5,291.5C 660.981,291.825 653.648,291.492 646.5,290.5C 646.833,290.5 647.167,290.5 647.5,290.5C 654.167,290.5 660.833,290.5 667.5,290.5C 667.333,275.83 667.5,261.163 668,246.5C 669.039,247.244 669.539,248.244 669.5,249.5 Z"/></g>
<g><path style="opacity:0.941" fill="#dff39c" d="M 682.5,267.5 C 684.446,268.035 685.446,269.368 685.5,271.5C 684.026,270.564 683.026,269.23 682.5,267.5 Z"/></g>
<g><path style="opacity:0.91" fill="#ffb38f" d="M 50.5,268.5 C 52.4456,269.035 53.4456,270.368 53.5,272.5C 52.0256,271.564 51.0256,270.23 50.5,268.5 Z"/></g>
<g><path style="opacity:0.831" fill="#e2f4a2" d="M 320.5,265.5 C 320.88,267.698 320.213,269.365 318.5,270.5C 318.796,268.597 319.463,266.93 320.5,265.5 Z"/></g>
<g><path style="opacity:0.867" fill="#dcf293" d="M 497.5,270.5 C 497.389,271.117 497.056,271.617 496.5,272C 493.633,272.801 490.966,272.634 488.5,271.5C 491.57,271.632 494.57,271.299 497.5,270.5 Z"/></g>
<g><path style="opacity:0.941" fill="#ddf295" d="M 685.5,271.5 C 687.446,272.035 688.446,273.368 688.5,275.5C 687.026,274.564 686.026,273.23 685.5,271.5 Z"/></g>
<g><path style="opacity:0.718" fill="#e5f6ae" d="M 385.5,270.5 C 386.738,272.214 387.405,274.214 387.5,276.5C 385.926,274.898 385.259,272.898 385.5,270.5 Z"/></g>
<g><path style="opacity:0.851" fill="#dff399" d="M 318.5,271.5 C 318.88,273.698 318.213,275.365 316.5,276.5C 316.796,274.597 317.463,272.93 318.5,271.5 Z"/></g>
<g><path style="opacity:0.012" fill="#fedbcb" d="M 55.5,274.5 C 56.5,274.833 57.1667,275.5 57.5,276.5C 56.1667,276.5 55.5,275.833 55.5,274.5 Z"/></g>
<g><path style="opacity:0.89" fill="#e2f4a3" d="M 690.5,278.5 C 692.446,279.035 693.446,280.368 693.5,282.5C 692.026,281.564 691.026,280.23 690.5,278.5 Z"/></g>
<g><path style="opacity:1" fill="#ffc16c" d="M 266.5,277.5 C 264.853,280.473 262.853,283.14 260.5,285.5C 260.942,282.657 261.942,279.991 263.5,277.5C 264.425,276.438 265.425,276.438 266.5,277.5 Z"/></g>
<g><path style="opacity:0.29" fill="#fed0bc" d="M 61.5,280.5 C 63.0269,280.427 64.0269,281.094 64.5,282.5C 62.9731,282.573 61.9731,281.906 61.5,280.5 Z"/></g>
<g><path style="opacity:0.58" fill="#ebf7bb" d="M 464.5,281.5 C 465.833,281.5 466.5,282.167 466.5,283.5C 465.5,283.167 464.833,282.5 464.5,281.5 Z"/></g>
<g><path style="opacity:0.925" fill="#dff399" d="M 693.5,282.5 C 695.446,283.035 696.446,284.368 696.5,286.5C 695.026,285.564 694.026,284.23 693.5,282.5 Z"/></g>
<g><path style="opacity:0.62" fill="#e9f6b7" d="M 466.5,283.5 C 468.404,283.738 469.738,284.738 470.5,286.5C 468.596,286.262 467.262,285.262 466.5,283.5 Z"/></g>
<g><path style="opacity:0.243" fill="#fed1bc" d="M 68.5,284.5 C 70.0269,284.427 71.0269,285.094 71.5,286.5C 69.9731,286.573 68.9731,285.906 68.5,284.5 Z"/></g>
<g><path style="opacity:0.957" fill="#dbf192" d="M 696.5,286.5 C 698.446,287.035 699.446,288.368 699.5,290.5C 698.026,289.564 697.026,288.23 696.5,286.5 Z"/></g>
<g><path style="opacity:0.71" fill="#fcb592" d="M 71.5,286.5 C 75.4268,286.926 79.0935,287.926 82.5,289.5C 78.4661,289.483 74.7994,288.483 71.5,286.5 Z"/></g>
<g><path style="opacity:0.471" fill="#e8f7b7" d="M 364.5,284.5 C 366.074,286.102 366.741,288.102 366.5,290.5C 365.262,288.786 364.595,286.786 364.5,284.5 Z"/></g>
<g><path style="opacity:0.737" fill="#dbf28e" d="M 314.5,283.5 C 314.741,285.898 314.074,287.898 312.5,289.5C 312.5,289.167 312.5,288.833 312.5,288.5C 312.402,286.447 313.069,284.78 314.5,283.5 Z"/></g>
<g><path style="opacity:0.639" fill="#e0f49d" d="M 389.5,283.5 C 390.931,284.78 391.598,286.447 391.5,288.5C 391.5,288.833 391.5,289.167 391.5,289.5C 389.926,287.898 389.259,285.898 389.5,283.5 Z"/></g>
<g><path style="opacity:0.514" fill="#b9d6ec" d="M 215.5,175.5 C 216.499,213.663 216.832,251.996 216.5,290.5C 190.165,290.667 163.831,290.5 137.5,290C 136.167,265 136.167,240 137.5,215C 109.33,214.832 81.3303,214.332 53.5,213.5C 53.8333,213.5 54.1667,213.5 54.5,213.5C 82.5,213.5 110.5,213.5 138.5,213.5C 138.5,238.833 138.5,264.167 138.5,289.5C 163.833,289.5 189.167,289.5 214.5,289.5C 215.499,251.67 215.832,213.67 215.5,175.5 Z"/></g>
<g><path style="opacity:0.115" fill="#f6fce5" d="M 312.5,288.5 C 312.5,288.833 312.5,289.167 312.5,289.5C 320.65,290.493 328.983,290.826 337.5,290.5C 329.016,291.493 320.349,291.826 311.5,291.5C 311.263,290.209 311.596,289.209 312.5,288.5 Z"/></g>
<g><path style="opacity:0.117" fill="#f6fce6" d="M 391.5,288.5 C 392.404,289.209 392.737,290.209 392.5,291.5C 383.651,291.826 374.984,291.493 366.5,290.5C 375.017,290.826 383.35,290.493 391.5,289.5C 391.5,289.167 391.5,288.833 391.5,288.5 Z"/></g>
<g><path style="opacity:0.119" fill="#f7fce7" d="M 400.5,214.5 C 408.316,213.508 416.316,213.174 424.5,213.5C 424.5,232.833 424.5,252.167 424.5,271.5C 433.167,271.5 441.833,271.5 450.5,271.5C 450.5,278.167 450.5,284.833 450.5,291.5C 433.5,291.5 416.5,291.5 399.5,291.5C 399.169,265.661 399.502,239.995 400.5,214.5 Z"/></g>
<g><path style="opacity:1" fill="#b5e61f" d="M 400.5,214.5 C 408.167,214.5 415.833,214.5 423.5,214.5C 423.5,233.833 423.5,253.167 423.5,272.5C 432.167,272.5 440.833,272.5 449.5,272.5C 449.5,278.5 449.5,284.5 449.5,290.5C 433.167,290.5 416.833,290.5 400.5,290.5C 400.5,265.167 400.5,239.833 400.5,214.5 Z"/></g>
</svg>
